#!OML:ASF F:\VICON\USERDATA\INSTALL\rory3\rory3.ASF
:FULLY-SPECIFIED
:DEGREES
55
root 0.13046079407132097 18.10203127536641 29.99527818603567 3.0098583008582094 2.3972386893026125 -5.2587331438947
lfemur -33.415387582576635 0.46212033725532514 -17.290146063272832
ltibia 62.5835589893766
lfoot -2.996551079445151 -9.657339112577576
ltoes -16.99172466576939
rfemur 2.539131631480533 2.798465503330716 32.6283994712149
rtibia 41.352399728641764
rfoot 14.380164630446549 -7.724739986547829
rtoes -0.5600457160309418
lowerback 13.939076456723026 2.334792516335395 6.13492267877906
upperback -1.8382522049999208 4.3606111090971975 2.0349986637416606
thorax -9.34533731995783 1.8100736218590052 -3.46715370140439
lowerneck -19.76780528754866 -4.699575885077933 -1.6754128433753959
upperneck 14.664632214998246 -6.552269383033225 2.3428053164727647
head 7.910146090890971 -3.051283719361011 0.2743648862213972
lclavicle -1.7288340370471495e-15 1.7836277319914594e-15
lhumerus -65.46340171685712 -8.763844176020942 99.1231388813762
lradius 105.55935038120313
lwrist 36.907184072123336
lhand -25.391101723828633 2.061043560504556
lfingers 7.12502
lthumb 0.8437059879903337 31.796575325954464
rclavicle -1.7288340367569514e-15 1.783627732202819e-15
rhumerus -45.945491163977074 12.435765297423606 -93.92870364416272
rradius 114.03937005179219
rwrist -10.32759798062961
rhand -16.947570548769168 40.55954278939502
rfingers 7.12502
rthumb 8.995486468050304 11.0891515571587
56
root 0.14652608713528595 18.103688580069644 31.280239832503554 2.8027182875598835 2.8067677318092414 -4.956354130900274
lfemur -31.59505511320034 -0.04697453573882732 -17.97511031180884
ltibia 56.513615087512335
lfoot -2.645696794111043 -10.363823066457698
ltoes -16.37334177626253
rfemur 1.9140968780723533 2.826713411522822 32.28574668137948
rtibia 44.74634939417672
rfoot 16.066763018046803 -8.26432596186594
rtoes 2.3783992747403913
lowerback 13.829659078466195 2.3577728769643063 5.787129683947681
upperback -1.8365381914073153 4.349994376132148 1.9199447127987381
thorax -9.245542582000208 1.8339574162322507 -3.3999882705516495
lowerneck -19.700959955689278 -4.705561254768416 -1.7134495384922297
upperneck 14.641489074990794 -6.580666370487055 2.459531163470801
head 7.919411562001305 -3.0510470850927205 0.3238686992394964
lclavicle -1.7288340370518807e-15 1.7836277319878583e-15
lhumerus -64.93326059711664 -8.54357870326913 98.72539783610456
lradius 106.12422702466377
lwrist 36.660205616959914
lhand -25.593409651390953 1.9716725360722034
lfingers 7.12502
lthumb 0.6650820305838517 31.783176439707418
rclavicle -1.7288340367472567e-15 1.7836277322096863e-15
rhumerus -45.951899957995174 12.867539770337565 -94.41329461854397
rradius 114.0424736285287
rwrist -10.147385543614805
rhand -16.810958479044587 40.38774540277375
rfingers 7.12502
rthumb 9.14046065001183 10.770767212290394
57
root 0.1561295590233315 18.10193243500401 32.78936752032516 2.644306522279278 3.337069678523381 -4.673979388340146
lfemur -29.657970660515723 -0.542481352624562 -18.63470114461025
ltibia 51.03648887780135
lfoot -2.413477299933521 -10.231225085167715
ltoes -14.907460780277718
rfemur 1.0134509641261218 2.5898137297982204 31.891681278293852
rtibia 49.135589138135714
rfoot 16.489623185773286 -9.0913760721748
rtoes 5.946538023184877
lowerback 13.758446802764038 2.312013470469738 5.392020751720616
upperback -1.7556509154551172 4.2612576013573005 1.8596548223309952
thorax -9.173319442821832 1.8276608120210174 -3.207749770382502
lowerneck -19.69692675892204 -4.705110505084441 -1.7537987233528116
upperneck 14.519762042934113 -6.599135440715592 2.5894699675569393
head 7.896599288719428 -3.047300148724657 0.378524197802842
lclavicle -1.728834037053972e-15 1.7836277319863784e-15
lhumerus -63.67063683590587 -8.53703822932685 98.53797810264047
lradius 106.52961235165202
lwrist 36.43641306115488
lhand -25.61513752146124 1.5785612902998494
lfingers 7.12502
lthumb 0.7029827058780854 31.44929024847968
rclavicle -1.7288340367423283e-15 1.7836277322132863e-15
rhumerus -45.886421143585 13.22513071588649 -94.93531830947362
rradius 113.7808012963347
rwrist -9.97854956893324
rhand -16.716567829916933 40.15785737351012
rfingers 7.12502
rthumb 9.305245322744952 10.470408148280653
58
root 0.14020076448960442 18.065001485024855 33.91723021047353 2.3187821393233286 3.7650826308954475 -4.349810081735102
lfemur -27.73897030819964 -0.9685908146318203 -19.35307009342748
ltibia 46.6574527855119
lfoot -2.717548501277531 -9.490635316685559
ltoes -14.6296980666426
rfemur -0.055944371773868795 2.165805432769466 31.377629521757193
rtibia 54.521256676201446
rfoot 16.13323306626991 -10.234338030993966
rtoes 8.728980378819996
lowerback 13.897617644084182 2.2427585397811813 4.875626345174016
upperback -1.5942443561926793 4.10656752330128 1.796490521319433
thorax -9.147407888008678 1.790725085844855 -2.8724778766385213
lowerneck -19.754052278544595 -4.676881049052321 -1.7726228435151734
upperneck 14.308622559203666 -6.579225796561497 2.72997133806552
head 7.860002586822217 -3.0189011420734975 0.4388521539578304
lclavicle -1.7288340370574455e-15 1.783627731984096e-15
lhumerus -61.910977976374085 -8.90897895202133 98.54920111697884
lradius 106.8463261960309
lwrist 36.223198513520124
lhand -25.678766666330436 1.5993144146023943
lfingers 7.12502
lthumb 0.6699834457975113 31.51633619136715
rclavicle -1.7288340367342987e-15 1.78362773221933e-15
rhumerus -45.75727622439487 13.42519547887435 -95.52435025863663
rradius 113.28279519125736
rwrist -9.719513316766518
rhand -16.6278543487953 39.96693331545829
rfingers 7.12502
rthumb 9.409890491808044 10.235377419662884
59
root 0.12347224336099885 17.97702432470321 35.05267224809437 1.7993757653010762 4.155795058790679 -3.7826880926888657
lfemur -25.597516758370176 -1.2408836032761905 -20.240681660504823
ltibia 43.61214419862404
lfoot -3.393462686799122 -8.506275929276702
ltoes -13.791643067256718
rfemur -1.5358084898913233 1.4563787262361307 30.462045258301973
rtibia 60.929279807996316
rfoot 15.250684006960796 -11.67243945153572
rtoes 13.123380971435447
lowerback 14.124799925955584 2.1178836322858015 4.081902018575601
upperback -1.3527964241830026 3.814556220334012 1.66646821164666
thorax -9.130543462155524 1.7065693421157757 -2.4076649471115945
lowerneck -19.860901191247283 -4.627399327129384 -1.7727948078090052
upperneck 14.091454382421954 -6.536436048382779 2.8688086776158492
head 7.830299312013633 -2.970297054625747 0.5000286890353889
lclavicle -1.7288340370570167e-15 1.7836277319848314e-15
lhumerus -59.85924053742234 -9.72131201772281 98.64776948316072
lradius 106.98474576073748
lwrist 36.30914017165171
lhand -25.785726212069513 1.6112272588632295
lfingers 7.12502
lthumb 0.6533636234495315 31.611167729450514
rclavicle -1.7288340367272401e-15 1.783627732224815e-15
rhumerus -45.723001818335355 13.395972397005918 -96.13817485672968
rradius 112.61373718999579
rwrist -9.5543541246653
rhand -16.611096624174966 39.7287046591126
rfingers 7.12502
rthumb 9.440188600176569 9.940911573766844
